<svg width="243" height="42" viewBox="0 0 243 42" fill="none" xmlns="http://www.w3.org/2000/svg">
<path d="M192.686 32.3438L208.359 13.9746H211.23V40.9277H205.898V23.6426L190.371 41.5137H187.354V13.9746H192.686V32.3438ZM50.2441 13.4473C53.1348 13.4473 55.4883 14.1992 57.3047 15.7031C59.1211 17.1875 60.0293 19.3945 60.0293 22.3242V36.1816C60.0293 37.0996 60.3613 37.5586 61.0254 37.5586C61.6504 37.5586 62.5977 37.0801 63.8672 36.123V39.375C62.5977 40.1953 61.6211 40.7422 60.9375 41.0156C60.2734 41.3086 59.5312 41.4551 58.7109 41.4551C57.5391 41.4551 56.6211 41.2402 55.957 40.8105C55.293 40.3613 54.8438 39.6582 54.6094 38.7012C52.2852 40.5371 49.873 41.4551 47.373 41.4551C45.4395 41.4551 43.8477 40.8105 42.5977 39.5215C41.3672 38.2129 40.752 36.6602 40.752 34.8633C40.752 33.9062 40.9082 33.0469 41.2207 32.2852C41.5332 31.5039 41.9238 30.8496 42.3926 30.3223C42.8613 29.7754 43.5254 29.2578 44.3848 28.7695C45.2637 28.2617 46.0938 27.8418 46.875 27.5098C47.6562 27.1777 48.6816 26.7871 49.9512 26.3379L54.668 24.668V23.2324C54.668 21.5723 54.2676 20.3711 53.4668 19.6289C52.6855 18.8672 51.4648 18.4863 49.8047 18.4863C46.6602 18.4863 43.8281 19.9707 41.3086 22.9395V17.1094C43.3984 14.668 46.377 13.4473 50.2441 13.4473ZM34.6582 40.9277H28.7988V5.27344H5.85938V40.9277H0V0H34.6582V40.9277ZM82.5439 30.6152L90.4834 13.9746H95.874L97.7783 40.9277H92.7393L91.0693 22.5586L84.5107 35.9277H80.4961L73.4326 22.3828L72.0557 40.9277H67.0166L68.8037 13.9746H74.2236L82.5439 30.6152ZM77 36.7412C78.0765 36.7412 78.9492 38.1996 78.9492 39.999C78.9492 40.3218 78.9195 40.6333 78.8672 40.9277H75.1328C75.0805 40.6333 75.0508 40.3218 75.0508 39.999C75.0508 38.1996 75.9235 36.7412 77 36.7412ZM88 36.7344C89.0468 36.7344 89.8955 38.2111 89.8955 40.0322C89.8955 40.3427 89.8693 40.6429 89.8232 40.9277H86.1768C86.1307 40.6429 86.1045 40.3427 86.1045 40.0322C86.1045 38.2111 86.9532 36.7344 88 36.7344ZM125.039 40.9277H119.707V31.084H118.184C116.68 31.084 115.332 31.4062 114.141 32.0508C112.969 32.6758 111.885 33.7793 110.889 35.3613L107.344 40.9277H101.045L105 35.1562C106.699 32.6172 108.418 30.9375 110.156 30.1172C106.23 28.6719 104.268 26.0938 104.268 22.3828C104.268 20.7227 104.795 19.2383 105.85 17.9297C106.904 16.6211 108.242 15.6348 109.863 14.9707C111.484 14.3066 113.203 13.9746 115.02 13.9746H125.039V40.9277ZM154.043 18.7793H144.58V40.9277H139.219V18.7793H129.756V13.9746H154.043V18.7793ZM164.268 25.1367H166.494C167.451 25.1367 168.35 24.7656 169.189 24.0234C170.049 23.2617 170.947 22.0605 171.885 20.4199L175.605 13.9746H181.436L176.982 21.3574C175.439 23.9551 173.828 25.8984 172.148 27.1875C173.281 27.6953 174.268 28.3984 175.107 29.2969C175.947 30.1758 176.895 31.5137 177.949 33.3105L182.344 40.9277H175.869L172.207 33.6035C171.523 32.2363 170.674 31.1914 169.658 30.4688C168.643 29.7266 167.568 29.3555 166.436 29.3555H164.268V40.9277H158.936V13.9746H164.268V25.1367ZM224.209 24.6094H237.422V13.9746H242.754V40.9277H237.422V29.4141H224.209V40.9277H218.877V13.9746H224.209V24.6094ZM54.668 27.5977C53.5938 27.9688 52.7051 28.291 52.002 28.5645C51.2988 28.8184 50.5371 29.1504 49.7168 29.5605C48.916 29.9707 48.2812 30.3711 47.8125 30.7617C47.3438 31.1523 46.9531 31.6211 46.6406 32.168C46.3281 32.6953 46.1719 33.2715 46.1719 33.8965C46.1719 35.0098 46.5332 35.918 47.2559 36.6211C47.9785 37.3242 48.8965 37.6758 50.0098 37.6758C51.5918 37.6758 53.1445 36.9434 54.668 35.4785V27.5977ZM115.02 18.7793C113.32 18.7793 112.012 19.1113 111.094 19.7754C110.195 20.4395 109.746 21.4062 109.746 22.6758C109.746 23.7891 110.186 24.7754 111.064 25.6348C111.943 26.4746 113.262 26.8945 115.02 26.8945H119.707V18.7793H115.02Z" fill="#9C3CF0"/>
</svg>
